<mxfile host="65bd71144e">
    <diagram id="rA5KS_z2IOA_mz4io4nV" name="Page-1">
        <mxGraphModel dx="753" dy="520" grid="1" gridSize="10" guides="1" tooltips="1" connect="1" arrows="1" fold="1" page="1" pageScale="1" pageWidth="850" pageHeight="1100" math="0" shadow="0">
            <root>
                <mxCell id="0"/>
                <mxCell id="1" parent="0"/>
                <mxCell id="34" style="edgeStyle=none;html=1;entryX=0.5;entryY=0;entryDx=0;entryDy=0;" parent="1" source="21" target="33" edge="1">
                    <mxGeometry relative="1" as="geometry">
                        <Array as="points">
                            <mxPoint x="305" y="130"/>
                            <mxPoint x="250" y="130"/>
                        </Array>
                    </mxGeometry>
                </mxCell>
                <mxCell id="21" value="source:&#10;d.state.sources.myvideo.image" style="rounded=1;whiteSpace=wrap;fillColor=#cce5ff;strokeColor=#36393d;fontColor=#000000;" parent="1" vertex="1">
                    <mxGeometry x="190" y="40" width="230" height="40" as="geometry"/>
                </mxCell>
                <mxCell id="32" value="type:flux" style="rounded=1;whiteSpace=wrap;fillColor=#ffcccc;strokeColor=#36393d;fontColor=#000000;" parent="1" vertex="1">
                    <mxGeometry x="40" y="40" width="100" height="40" as="geometry"/>
                </mxCell>
                <mxCell id="37" style="edgeStyle=none;html=1;" parent="1" source="33" target="35" edge="1">
                    <mxGeometry relative="1" as="geometry"/>
                </mxCell>
                <mxCell id="33" value="localFiles1.metavideo" style="rounded=1;whiteSpace=wrap;fillColor=#ffff88;strokeColor=#36393d;fontColor=#000000;" parent="1" vertex="1">
                    <mxGeometry x="180" y="170" width="140" height="60" as="geometry"/>
                </mxCell>
                <mxCell id="35" value="metadata:&#10;d.metadata.videoMeta" style="rounded=1;whiteSpace=wrap;fillColor=#cce5ff;strokeColor=#36393d;fontColor=#000000;" parent="1" vertex="1">
                    <mxGeometry x="147.5" y="280" width="205" height="40" as="geometry"/>
                </mxCell>
            </root>
        </mxGraphModel>
    </diagram>
</mxfile>